<svg xmlns="http://www.w3.org/2000/svg" class="icon" style="width: 128px; height: 128px; vertical-align: middle; fill: currentcolor; overflow: hidden;" viewBox="0 0 1024 1024" version="1.1"><path d="M983.612496 312.49932a512.038921 512.038921 0 1 0-834.395873 560.843838c0.282109 0.282109 0.606013 0.55377 0.888123 0.888122a512.038921 512.038921 0 0 0 833.50775-561.533439m-221.936471-50.152773a353.159114 353.159114 0 1 1-499.229067-0.229867 353.754678 353.754678 0 0 1 384.807604-76.806883 347.057193 347.057193 0 0 1 114.411014 76.806883z" fill="#fff"/><path d="M871.468805 362.725233A393.02012 393.02012 0 0 0 660.639083 152.073135a389.519874 389.519874 0 1 0 210.317745 510.314919 393.584339 393.584339 0 0 0 0.616462-299.662821m-96.805302-113.88859a370.754378 370.754378 0 0 1 1.18068 524.263659l-1.18068 1.18068a371.621603 371.621603 0 1 1-525.653309-525.444339 376.856299 376.856299 0 0 1 120.701009-80.453408 371.548464 371.548464 0 0 1 405.056785 80.662378M511.946558 357.647264a153.833184 153.833184 0 0 0-0.511976 307.666369h0.511976a153.007753 153.007753 0 0 0 153.822736-152.443535v-1.285164a153.822736 153.822736 0 0 0-153.822736-153.833185m-96.700816 57.46672a136.175229 136.175229 0 0 1 192.534407-0.303006l0.303007 0.303006a136.206574 136.206574 0 0 1 0.355249 192.597099l-0.355249 0.303006a136.122986 136.122986 0 0 1-192.534408 0.355249l-0.303006-0.355249a136.154332 136.154332 0 0 1-0.355249-192.544856l0.355249-0.355249m153.822735 96.450053a80.662377 80.662377 0 1 0-0.156727 0.564218v-0.355249m-17.480331 0a37.896689 37.896689 0 0 1-11.284374 28.210936 39.787867 39.787867 0 0 1-56.421871 0 37.896689 37.896689 0 0 1-11.284374-28.210936 39.484861 39.484861 0 1 1 78.959273-0.208969z"/><path d="M855.461711 369.589894a367.327272 367.327272 0 0 0-80.64148-120.439796 371.339494 371.339494 0 1 0 80.64148 120.439796m-78.959273 31.02158a8.567765 8.567765 0 0 1-4.670477 11.127646h-0.407491l-3.134548 0.564219a8.202068 8.202068 0 0 1-8.149826-5.642187 250.325031 250.325031 0 0 0-56.42187-86.597122 254.295459 254.295459 0 0 0-86.900129-56.808465 7.313946 7.313946 0 0 1-4.51375-4.179398 9.079742 9.079742 0 0 1 0-6.770624 8.620008 8.620008 0 0 1 4.51375-4.51375 9.591718 9.591718 0 0 1 6.770625-0.303006 277.104522 277.104522 0 0 1 92.281103 60.350504 267.648635 267.648635 0 0 1 60.904274 92.803528m48.501912 1.38965a7.899062 7.899062 0 0 1-8.202069-5.642187 301.846557 301.846557 0 0 0-73.317085-115.873804 307.10215 307.10215 0 0 0-115.863356-73.317086 9.842482 9.842482 0 0 1-4.816756-4.513749 9.330506 9.330506 0 0 1-0.261212-6.770625 7.585607 7.585607 0 0 1 4.179398-4.816756 7.846819 7.846819 0 0 1 6.770624 0 327.319987 327.319987 0 0 1 199.566245 199.399069 8.160274 8.160274 0 0 1-0.303007 6.206406 10.866434 10.866434 0 0 1-5.13021 4.764513l-2.737506 0.564219m-422.119177 1.431444a153.133135 153.133135 0 0 1 216.565945-1.04485l1.04485 1.04485a153.812287 153.812287 0 1 1-217.997389 0.303006l0.303006-0.303006m204.790492-106.574644a8.202068 8.202068 0 0 1 6.770624 0 223.994825 223.994825 0 0 1 66.650947 46.151 219.146723 219.146723 0 0 1 45.680817 66.661395 8.923014 8.923014 0 0 1 0 6.509412 9.894724 9.894724 0 0 1-4.816755 5.130211 4.764513 4.764513 0 0 1-3.071858 0.825431 7.846819 7.846819 0 0 1-7.899062-5.642187 217.328685 217.328685 0 0 0-42.295505-61.165487 202.199265 202.199265 0 0 0-61.520736-42.295506 7.533365 7.533365 0 0 1-4.513749-4.816756 8.202068 8.202068 0 0 1 0-6.770624 7.585607 7.585607 0 0 1 4.764513-4.51375M297.324033 614.502604a8.661802 8.661802 0 0 1 4.816756-11.284374 8.557317 8.557317 0 0 1 6.457169 0 8.818529 8.818529 0 0 1 5.130211 4.51375 201.102173 201.102173 0 0 0 42.044742 61.531184 208.050422 208.050422 0 0 0 61.520735 42.044742 8.714044 8.714044 0 0 1 4.764514 4.764513 9.079742 9.079742 0 0 1 0 6.770625 8.358796 8.358796 0 0 1-8.149826 5.13021 6.969146 6.969146 0 0 1-3.385312-0.564218 223.691818 223.691818 0 0 1-112.84374-112.843741m-45.1166-1.94342a10.918677 10.918677 0 0 1 6.770625 0 8.870772 8.870772 0 0 1 4.816756 4.51375 254.201422 254.201422 0 0 0 143.248859 143.823526 7.846819 7.846819 0 0 1 5.130211 4.179398 8.609559 8.609559 0 0 1 0 6.770625 7.439328 7.439328 0 0 1-7.899062 5.642187 5.130211 5.130211 0 0 1-3.134548-0.564219 263.678207 263.678207 0 0 1-92.699043-61.374457 267.230695 267.230695 0 0 1-60.601268-92.291551 8.620008 8.620008 0 0 1 0-6.770625 7.637849 7.637849 0 0 1 4.513749-4.179398m-49.316894 10.720156a7.690092 7.690092 0 0 1 4.51375 4.764513 310.320286 310.320286 0 0 0 188.072901 189.713314 9.946967 9.946967 0 0 1 5.13021 4.51375 9.64396 9.64396 0 0 1 0.303007 6.770625 8.661802 8.661802 0 0 1-8.463281 5.642187h-2.821093a330.90382 330.90382 0 0 1-199.639384-199.963288 8.463281 8.463281 0 0 1 0.564218-6.770624 7.742334 7.742334 0 0 1 5.130211-4.179398 7.125873 7.125873 0 0 1 6.206406 0.261212z" fill="#E3B814"/><path d="M206.91321 628.022956a7.690092 7.690092 0 0 0-4.51375-4.764513 7.313946 7.313946 0 0 0-6.509412 0 7.585607 7.585607 0 0 0-5.13021 4.179397 8.463281 8.463281 0 0 0-0.564219 6.770625 330.872475 330.872475 0 0 0 199.900596 199.566244h2.821094a8.609559 8.609559 0 0 0 8.452832-5.642187 9.330506 9.330506 0 0 0-0.261213-6.770624 10.249973 10.249973 0 0 0-5.13021-4.51375 310.215801 310.215801 0 0 1-189.11775-188.898331m51.56332-15.380184a10.249973 10.249973 0 0 0-6.770625 0 7.313946 7.313946 0 0 0-4.513749 4.179398 8.202068 8.202068 0 0 0 0 6.770624 273.823695 273.823695 0 0 0 153.363002 153.780942 5.892951 5.892951 0 0 0 3.071857 0.564218 7.481122 7.481122 0 0 0 7.888614-5.642187 8.202068 8.202068 0 0 0 0-6.770624 7.794577 7.794577 0 0 0-5.130211-4.252537 254.138731 254.138731 0 0 1-143.207066-143.792181 8.766287 8.766287 0 0 0-4.764513-4.51375m38.293732-4.712271a8.463281 8.463281 0 0 0 0 6.509412 224.09931 224.09931 0 0 0 112.457146 112.770601 9.403645 9.403645 0 0 0 11.587381-4.51375 9.581269 9.581269 0 0 0 0-6.770624 8.557317 8.557317 0 0 0-4.816756-4.816756 209.126617 209.126617 0 0 1-61.510287-41.982051 200.799167 200.799167 0 0 1-41.982051-61.771499 8.964808 8.964808 0 0 0-5.130211-4.51375 8.452832 8.452832 0 0 0-6.509412 0.303007 8.714044 8.714044 0 0 0-4.764514 4.764513M613.422336 297.202724a8.202068 8.202068 0 0 0-6.770624 0 7.637849 7.637849 0 0 0-4.816756 4.513749 8.609559 8.609559 0 0 0 0 6.770625 7.585607 7.585607 0 0 0 4.51375 4.764513 200.934997 200.934997 0 0 1 61.510287 42.295506 215.709169 215.709169 0 0 1 42.285057 61.207281 8.045341 8.045341 0 0 0 7.888613 5.642187 5.119762 5.119762 0 0 0 3.134548-0.867225 9.633512 9.633512 0 0 0 4.764514-5.130211 8.358796 8.358796 0 0 0 0-6.45717 216.597291 216.597291 0 0 0-44.844938-67.047989 222.772351 222.772351 0 0 0-66.63005-46.140552m202.700793 99.260698a7.846819 7.846819 0 0 0 8.149826 5.642187l2.821094-0.564219a11.169441 11.169441 0 0 0 5.13021-4.764513 7.690092 7.690092 0 0 0 0.303007-6.206406 327.037877 327.037877 0 0 0-200.151361-199.461759 7.836371 7.836371 0 0 0-6.770624 0 7.585607 7.585607 0 0 0-4.252537 4.764513 9.633512 9.633512 0 0 0 0.303006 6.770624 9.946967 9.946967 0 0 0 4.764513 4.51375 308.042514 308.042514 0 0 1 115.894701 73.306637 301.627139 301.627139 0 0 1 73.296189 115.90515m-40.341637 11.273925a7.637849 7.637849 0 0 0 0-6.509412 266.144051 266.144051 0 0 0-60.329607-92.730388 275.599939 275.599939 0 0 0-92.71994-60.601268 9.633512 9.633512 0 0 0-6.770625 0.303006 8.609559 8.609559 0 0 0-4.513749 4.51375 9.069293 9.069293 0 0 0 0 6.770624 7.313946 7.313946 0 0 0 4.513749 4.179398 252.372936 252.372936 0 0 1 87.140444 57.25775 249.719018 249.719018 0 0 1 56.693531 86.837437 8.202068 8.202068 0 0 0 8.149826 5.642187l3.134548-0.564219a7.690092 7.690092 0 0 0 5.130211-5.13021z" fill="#F8F7F9"/><path d="M511.936109 375.221632a136.697653 136.697653 0 1 0 136.875278 136.697653 136.697653 136.697653 0 0 0-136.875278-136.697653m41.083481 96.596332a56.954743 56.954743 0 0 1 0 80.453407 55.377021 55.377021 0 0 1-40.675989 16.717591 57.04878 57.04878 0 1 1 40.675989-97.170998z" fill="#02B053"/><path d="M540.136596 540.161566a38.053417 38.053417 0 0 0 11.294823-28.210935 39.495309 39.495309 0 1 0-78.98017-0.104485 38.053417 38.053417 0 0 0 11.294822 28.210935 39.850558 39.850558 0 0 0 56.484562 0z" fill="#FFFFFF"/><path d="M704.292893 396.787325l-16.498173-16.425034 21.388068-21.482104a106.261189 106.261189 0 0 0 30.520053-53.694813 122.863847 122.863847 0 0 1 34.271062-60.601268c10.741052-10.782846 53.527637-51.876775 55.37702-53.632123l16.122027 16.811628c-0.438837 0.428388-44.41655 42.650754-54.959081 53.287322a99.072625 99.072625 0 0 0-28.388559 50.581162 128.819488 128.819488 0 0 1-36.413003 63.735816z"/><path d="M798.287549 200.052622A38.053417 38.053417 0 1 0 836.340966 161.999205a38.053417 38.053417 0 0 0-38.063865 38.053417z"/><path d="M689.779934 423.754889a15.296596 15.296596 0 0 1-21.565693 0l-7.313946-7.240807a15.296596 15.296596 0 0 1 0-21.565692l13.133758-13.196449a15.296596 15.296596 0 0 1 21.565692 0l7.313947 7.240807a15.296596 15.296596 0 0 1 0 21.565692z"/></svg>