<svg xmlns="http://www.w3.org/2000/svg" class="icon" style="width: 128px; height: 128px; vertical-align: middle; fill: currentcolor; overflow: hidden;" viewBox="0 0 1024 1024" version="1.1"><path d="M510.3 637.8m-189.1 0a189.1 189.1 0 1 0 378.2 0 189.1 189.1 0 1 0-378.2 0Z" fill="#54B0E6"/><path d="M510.3 836.8c-109.7 0-199-89.3-199-199s89.3-199 199-199 199 89.3 199 199-89.3 199-199 199z m0-378.2C411.4 458.6 331 539 331 637.8S411.4 817 510.3 817s179.2-80.4 179.2-179.2-80.4-179.2-179.2-179.2z" fill="#2D415C"/><path d="M510.3 637.8m-113.5 0a113.5 113.5 0 1 0 227 0 113.5 113.5 0 1 0-227 0Z" fill="#54B0E6"/><path d="M510.3 761.1c-68 0-123.3-55.3-123.3-123.3s55.3-123.3 123.3-123.3 123.3 55.3 123.3 123.3-55.3 123.3-123.3 123.3z m0-226.9c-57.1 0-103.6 46.5-103.6 103.6s46.5 103.6 103.6 103.6c57.1 0 103.6-46.5 103.6-103.6s-46.5-103.6-103.6-103.6z" fill="#2D415C"/><path d="M510.3 637.8m-68.7 0a68.7 68.7 0 1 0 137.4 0 68.7 68.7 0 1 0-137.4 0Z" fill="#FDD65D"/><path d="M510.3 716.4c-43.3 0-78.6-35.2-78.6-78.6s35.2-78.6 78.6-78.6c43.3 0 78.6 35.2 78.6 78.6s-35.3 78.6-78.6 78.6z m0-137.4c-32.4 0-58.8 26.4-58.8 58.8s26.4 58.8 58.8 58.8 58.8-26.4 58.8-58.8-26.4-58.8-58.8-58.8z" fill="#2D415C"/><path d="M510.3 281m-113.5 0a113.5 113.5 0 1 0 227 0 113.5 113.5 0 1 0-227 0Z" fill="#54B0E6"/><path d="M510.3 404.3C442.3 404.3 387 349 387 281s55.3-123.3 123.3-123.3S633.6 213 633.6 281s-55.3 123.3-123.3 123.3z m0-226.9c-57.1 0-103.6 46.5-103.6 103.6 0 57.1 46.5 103.6 103.6 103.6 57.1 0 103.6-46.5 103.6-103.6-0.1-57.2-46.5-103.6-103.6-103.6z" fill="#2D415C"/><path d="M510.3 281m-51.3 0a51.3 51.3 0 1 0 102.6 0 51.3 51.3 0 1 0-102.6 0Z" fill="#FDD65D"/><path d="M510.3 342.1c-33.7 0-61.2-27.4-61.2-61.2 0-33.7 27.4-61.2 61.2-61.2 33.7 0 61.2 27.4 61.2 61.2-0.1 33.8-27.5 61.2-61.2 61.2z m0-102.5c-22.8 0-41.4 18.6-41.4 41.4 0 22.8 18.6 41.4 41.4 41.4s41.4-18.6 41.4-41.4c0-22.9-18.6-41.4-41.4-41.4z" fill="#2D415C"/></svg>