<svg xmlns="http://www.w3.org/2000/svg" class="icon" style="width: 128px; height: 128px; vertical-align: middle; fill: currentcolor; overflow: hidden;" viewBox="0 0 1024 1024" version="1.1"><path d="M684.94222222 586.752c-9.10222222-2.84444445-18.20444445-5.68888889-25.14488889-7.73688889-19.34222222 1.93422222-37.66044445 5.00622222-55.97866666 5.12-28.78577778 0.22755555-53.93066667-21.504-56.88888889-50.176-2.16177778-20.02488889-2.61688889-40.84622222 0.68266667-60.52977778 2.048-11.94666667 10.46755555-25.03111111 19.79733333-33.22311111 24.46222222-21.61777778 53.93066667-21.04888889 82.14755555-8.87466667 26.51022222 11.49155555 36.63644445 34.58844445 35.04355556 62.91911112-1.13777778 21.504 3.41333333 43.80444445-10.01244444 63.37422222-1.25155555 1.70666667 0.56888889 6.37155555 2.048 8.98844444 3.18577778 5.46133333 7.05422222 10.35377778 10.6951111 15.58755556-0.91022222 1.59288889-1.70666667 3.072-2.38933333 4.55111111z m-23.552-44.37333333c5.57511111-24.23466667 6.71288889-48.01422222 1.82044445-71.90755556-0.34133333-1.82044445-1.47911111-3.64088889-2.50311112-5.34755556-12.97066667-22.30044445-50.63111111-30.72-75.09333333-16.61155555-13.312 7.62311111-21.16266667 19.00088889-21.504 34.816-0.22755555 11.37777778 0.34133333 22.75555555-0.34133333 34.13333333-1.25155555 19.68355555 5.34755555 36.06755555 23.43822222 44.14577778 19.79733333 8.87466667 40.50488889 8.41955555 61.09866667-2.95822222-8.76088889-12.40177778-16.49777778-23.43822222-24.46222223-34.58844444 20.36622222-8.192 27.19288889 6.82666667 37.54666667 18.31822222zM525.19822222 586.29688889c-9.32977778-2.73066667-18.77333333-5.57511111-32.19911111-9.55733334-17.97688889 10.01244445-42.32533333 11.49155555-66.56 3.98222223-24.23466667-7.62311111-38.34311111-25.37244445-40.84622222-51.08622223-1.024-11.264 0.11377778-22.75555555-0.68266667-34.01955555-3.64088889-50.28977778 34.36088889-79.41688889 86.81244445-70.31466667 31.63022222 5.46133333 51.08622222 27.07911111 51.76888888 59.16444445 0.56888889 24.23466667 5.23377778 49.60711111-9.10222222 72.36266667-1.36533333 2.16177778 0.56888889 7.28177778 2.27555556 10.35377777 2.95822222 5.46133333 6.94044445 10.35377778 10.58133333 15.47377778-0.68266667 1.13777778-1.36533333 2.38933333-2.048 3.64088889z m-25.82755555-44.032c2.048-0.22755555 3.98222222-0.56888889 6.03022222-0.79644444 0-17.52177778 0.11377778-35.04355555 0-52.56533334-0.22755555-22.75555555-10.58133333-38.22933333-29.58222222-44.25955556-24.68977778-7.85066667-51.99644445-2.048-63.488 15.01866667-4.66488889 6.94044445-7.62311111 16.04266667-8.53333334 24.46222223-1.47911111 12.62933333-0.34133333 25.6-0.45511111 38.45688888-0.11377778 19.456 9.10222222 33.792 26.85155556 40.16355556 19.11466667 6.82666667 38.79822222 7.168 57.344-4.55111111-8.53333333-12.62933333-16.04266667-23.552-23.32444445-34.36088889 20.82133333-9.10222222 25.82755555 8.53333333 35.15733334 18.432zM944.128 498.00533333v-38.11555555c13.42577778-2.84444445 18.88711111 1.47911111 17.63555555 14.10844444-0.68266667 7.28177778-0.11377778 14.79111111-0.11377777 23.66577778h51.65511111v15.13244445h-52.33777778v71.33866666c-30.26488889 5.12-35.38488889 3.18577778-36.52266666-13.312 5.80266667-0.45511111 11.49155555-1.024 18.54577777-1.59288889v-56.32c-15.36 0-30.49244445-0.45511111-45.62488889 0.11377778-11.264 0.45511111-16.61155555-3.072-15.24622222-15.36 2.27555555-21.16266667 3.75466667-42.32533333 5.80266667-65.76355555h118.44266667v13.42577777h-99.66933334c-1.47911111 16.384-3.18577778 30.37866667-3.75466666 44.48711111-0.11377778 2.61688889 4.66488889 7.50933333 7.50933333 7.73688889 10.69511111 1.024 21.504 0.45511111 33.67822222 0.45511111zM721.92 584.13511111v-77.25511111c38.22933333 0 75.66222222-0.22755555 113.09511111 0.45511111 3.41333333 0.11377778 9.55733333 6.25777778 9.67111111 9.78488889 0.91022222 22.07288889 0.45511111 44.14577778 0.45511111 67.01511111H721.92z m18.31822222-46.30755556h86.35733333c-0.45511111-5.68888889-0.68266667-10.24-1.13777777-15.24622222h-85.21955556v15.24622222z m-0.68266667 16.83911112c0.45511111 5.68888889 0.68266667 9.89866667 1.024 14.336h85.78844445c-0.22755555-5.34755555-0.45511111-9.78488889-0.79644445-14.336H739.55555555zM741.48977778 481.16622222c-3.18577778-8.64711111-5.23377778-14.10844445-7.50933333-20.36622222 10.24-2.73066667 18.54577778-3.18577778 21.73155555 9.32977778 2.16177778 8.53333333 7.73688889 11.49155555 16.49777778 10.80888889 7.85066667-0.68266667 16.04266667 0.91022222 23.66577777-0.56888889 5.23377778-1.024 12.288-4.66488889 13.8808889-8.98844445 4.32355555-11.03644445 10.80888889-14.336 22.64177777-10.35377778-2.048 5.80266667-4.096 11.49155555-6.82666667 19.22844445h34.816c0.56888889 5.91644445 0.91022222 10.01244445 1.36533334 15.24622222H705.42222222V481.28c11.49155555-0.11377778 22.64177778-0.11377778 36.06755556-0.11377778zM713.84177778 452.83555555v-15.8151111H771.41333333v-14.44977778c7.96444445 2.27555555 18.88711111 2.61688889 20.13866667 6.25777778 3.41333333 9.67111111 9.78488889 8.07822222 16.384 8.192 14.22222222 0.11377778 28.55822222 0 43.34933333 0 2.048 8.41955555 5.34755555 15.81511111-7.39555555 15.8151111H713.84177778z" fill="#fff"/><path d="M874.83733333 580.608c7.39555555-17.18044445 12.74311111-29.80977778 18.09066667-42.32533333 5.80266667-13.42577778 5.80266667-13.42577778 24.34844445-10.58133334-6.82666667 15.92888889-12.62933333 31.97155555-20.70755556 46.64888889-2.27555555 3.86844445-11.83288889 3.64088889-21.73155556 6.25777778zM981.44711111 527.70133333c12.62933333-3.41333333 20.59377778-1.13777778 24.80355556 11.49155556 4.32355555 12.97066667 10.35377778 25.25866667 15.58755555 37.77422222-14.56355555 5.12-21.73155555-0.56888889-25.94133333-13.65333333-3.75466667-12.06044445-9.32977778-23.43822222-14.44977778-35.61244445z" fill="#fff"/><path d="M234.72355555 350.89066667s-0.22755555 0.11377778-0.4551111 0.34133333c0.22755555-0.11377778 0.45511111-0.34133333 0.4551111-0.34133333z" fill="#fff"/><path d="M239.38844445 379.33511111l-4.6648889-28.44444444s-3.072 28.78577778-36.97777777 59.61955555c-15.58755555 14.22222222-43.12177778 29.80977778-43.12177778 29.80977778l64.73955555 112.07111111s6.144 18.54577778-2.048 35.95377778c-9.55733333 20.36622222-28.78577778 32.88177778-65.76355555 33.90577778-32.88177778 0.91022222-55.52355555-18.54577778-59.61955555-45.16977778-4.096-26.39644445 13.08444445-46.76266667 32.88177777-54.49955556 18.54577778-7.168 49.37955555-4.096 49.37955556-4.096l-71.90755556-121.28711111 1.024-12.288s23.09688889 2.95822222 63.71555556-5.12c18.54577778-3.75466667 34.13333333-9.89866667 45.73866667-15.58755555-17.74933333-7.73688889-37.43288889-12.06044445-58.02666667-12.06044445-79.98577778 0-144.95288889 64.85333333-144.95288889 144.95288889 0 79.98577778 64.85333333 144.95288889 144.95288889 144.95288889 79.98577778 0 144.95288889-64.85333333 144.95288889-144.95288889-0.22755555-48.58311111-23.89333333-91.36355555-60.30222222-117.76z" fill="#FFDC00"/><path d="M234.72355555 350.89066667s-26.73777778 20.59377778-67.81155555 28.78577778c-40.61866667 8.07822222-63.71555555 5.12-63.71555555 5.12l-1.024 12.288L174.08 518.48533333s-30.83377778-3.072-49.37955555 4.096c-19.79733333 7.62311111-36.97777778 28.10311111-32.88177778 54.49955556 4.096 26.73777778 26.73777778 46.08 59.61955555 45.16977778 36.97777778-1.024 56.20622222-13.53955555 65.76355556-33.90577778 8.192-17.52177778 2.048-35.95377778 2.048-35.95377778L154.51022222 440.32s27.53422222-15.58755555 43.12177778-29.80977778c34.01955555-30.83377778 37.09155555-59.61955555 37.09155555-59.61955555z" fill="#0AC094"/></svg>